<svg xmlns="http://www.w3.org/2000/svg" width="80" height="80" xmlns:xlink="http://www.w3.org/1999/xlink">
  <defs>
    <path id="a" d="M8.40061552.19407143C3.32933042 6.18029513.26451948 13.8975357.26451948 22.2926786v2.9454464c0 1.5286637.209263 3.01106.60068938 4.4202321H25.6623377V.19407143H8.40061552z"/>
    <path id="c" d="M.14923636 13.820746c1.01417384-.0901436 2.0405981-.1361924 3.0773091-.1361924H9.8286753c7.40758368 0 14.29007368 2.3512627 19.93095068 6.3408625v8.3918696H.14923636V13.820746z"/>
    <path id="e" d="M.70887273 26.2202679H11.8027013c9.2275844 0 16.7792208-7.5133929 16.7792208-16.6964286V6.57839285c0-2.12697982-.1967317-4.21044477-.5729817-6.23326786H.70887273v25.8751429z"/>
  </defs>
  <g fill="none" fill-rule="evenodd">
    <path fill="#E6EBF4" d="M49.9819584 75H30.2416987c-5.4512727 0-9.8701299-4.4130429-9.8701299-9.8571429V52.3285714c0-5.4441 4.4188572-9.8571428 9.8701299-9.8571428h19.7402597c5.4512728 0 9.8701299 4.4130428 9.8701299 9.8571428v12.8142857c0 5.4441-4.4188571 9.8571429-9.8701299 9.8571429"/>
    <path stroke="#1A1C1E" stroke-width="4" d="M49.9819584 75H30.2416987c-5.4512727 0-9.8701299-4.4130429-9.8701299-9.8571429V52.3285714c0-5.4441 4.4188572-9.8571428 9.8701299-9.8571428h19.7402597c5.4512728 0 9.8701299 4.4130428 9.8701299 9.8571428v12.8142857c0 5.4441-4.4188571 9.8571429-9.8701299 9.8571429z" stroke-linecap="round" stroke-linejoin="round"/>
    <path fill="#F04747" d="M61.179226 60.90192H19.0446286c-9.22857146 0-16.7792208-7.5407143-16.7792208-16.7571429v-2.9571428c0-18.975 15.5454545-34.5 34.5454545-34.5h6.6021299c19 0 34.5454546 15.525 34.5454546 34.5v2.9571428c0 9.2164286-7.5506494 16.7571429-16.7792208 16.7571429"/>
    <g transform="translate(2 18.768)">
      <mask id="b" fill="#fff">
        <use xlink:href="#a"/>
      </mask>
      <rect width="26" height="26" x="-2" y="2" fill="#E6EAF4" stroke="#1A1C1E" stroke-width="4" mask="url(#b)" rx="13"/>
    </g>
    <g transform="translate(33.584 -7)">
      <mask id="d" fill="#fff">
        <use xlink:href="#c"/>
      </mask>
      <rect width="26" height="26" x="3" fill="#E6EAF4" stroke="#1A1C1E" stroke-width="4" mask="url(#d)" rx="13"/>
    </g>
    <g transform="translate(49.377 34.482)">
      <mask id="f" fill="#fff">
        <use xlink:href="#e"/>
      </mask>
      <rect width="26" height="26" x="3" y="2" fill="#E6EAF4" stroke="#1A1C1E" stroke-width="4" mask="url(#f)" rx="13"/>
    </g>
    <path stroke="#1A1C1E" stroke-width="4" d="M33.2027377 61.7681311v4.2295082m13.8181818-4.2295082v4.2295082m14.1583065-5.2131147H19.0446286c-9.22857146 0-16.7792208-7.5245902-16.7792208-16.7213115v-2.9508197c0-18.9344262 15.5454545-34.42622947 34.5454545-34.42622947h6.6021299c19 0 34.5454546 15.49180327 34.5454546 34.42622947v2.9508197c0 9.1967213-7.5506494 16.7213115-16.7792208 16.7213115z" stroke-linecap="round" stroke-linejoin="round"/>
  </g>
</svg>